HIERARCHY
ROOT Hips
{
	OFFSET -0.001795 -0.223333 0.028219
	CHANNELS 6 Xposition Yposition Zposition Zrotation Yrotation Xrotation
	JOINT LeftUpLeg
	{
		OFFSET 0.069520 -0.091406 -0.006815
		CHANNELS 3 Zrotation Yrotation Xrotation
		JOINT LeftLeg
		{
			OFFSET 0.034277 -0.375199 -0.004496
			CHANNELS 3 Zrotation Yrotation Xrotation
			JOINT LeftFoot
			{
				OFFSET -0.013596 -0.397961 -0.043693
				CHANNELS 3 Zrotation Yrotation Xrotation
				JOINT LeftToe
				{
					OFFSET 0.026358 -0.055791 0.119288
					CHANNELS 3 Zrotation Yrotation Xrotation
					End Site
					{
						OFFSET 0.000000 0.000000 0.000000
					}
				}
			}
		}
	}
	JOINT RightUpLeg
	{
		OFFSET -0.067670 -0.090522 -0.004320
		CHANNELS 3 Zrotation Yrotation Xrotation
		JOINT RightLeg
		{
			OFFSET -0.038290 -0.382569 -0.008850
			CHANNELS 3 Zrotation Yrotation Xrotation
			JOINT RightFoot
			{
				OFFSET 0.015774 -0.398415 -0.042312
				CHANNELS 3 Zrotation Yrotation Xrotation
				JOINT RightToe
				{
					OFFSET -0.025372 -0.048144 0.123348
					CHANNELS 3 Zrotation Yrotation Xrotation
					End Site
					{
						OFFSET 0.000000 0.000000 0.000000
					}
				}
			}
		}
	}
	JOINT Spine
	{
		OFFSET -0.002533 0.108963 -0.026696
		CHANNELS 3 Zrotation Yrotation Xrotation
		JOINT Spine1
		{
			OFFSET 0.005487 0.135180 0.001092
			CHANNELS 3 Zrotation Yrotation Xrotation
			JOINT Spine2
			{
				OFFSET 0.001457 0.052922 0.025425
				CHANNELS 3 Zrotation Yrotation Xrotation
				JOINT Neck
				{
					OFFSET -0.002778 0.213870 -0.042857
					CHANNELS 3 Zrotation Yrotation Xrotation
					JOINT Head
					{
						OFFSET 0.005152 0.064970 0.051349
						CHANNELS 3 Zrotation Yrotation Xrotation
						End Site
						{
							OFFSET 0.000000 0.000000 0.000000
						}
					}
				}
				JOINT LeftShoulder
				{
					OFFSET 0.078845 0.121749 -0.034090
					CHANNELS 3 Zrotation Yrotation Xrotation
					JOINT LeftArm
					{
						OFFSET 0.090977 0.030469 -0.008868
						CHANNELS 3 Zrotation Yrotation Xrotation
						JOINT LeftForeArm
						{
							OFFSET 0.259612 -0.012772 -0.027456
							CHANNELS 3 Zrotation Yrotation Xrotation
							JOINT LeftHand
							{
								OFFSET 0.249234 0.008986 -0.001171
								CHANNELS 3 Zrotation Yrotation Xrotation
								End Site
								{
									OFFSET 0.000000 0.000000 0.000000
								}
							}
						}
					}
				}
				JOINT RightShoulder
				{
					OFFSET -0.081759 0.118833 -0.038615
					CHANNELS 3 Zrotation Yrotation Xrotation
					JOINT RightArm
					{
						OFFSET -0.096012 0.032551 -0.009143
						CHANNELS 3 Zrotation Yrotation Xrotation
						JOINT RightForeArm
						{
							OFFSET -0.253742 -0.013329 -0.021401
							CHANNELS 3 Zrotation Yrotation Xrotation
							JOINT RightHand
							{
								OFFSET -0.255298 0.007772 -0.005559
								CHANNELS 3 Zrotation Yrotation Xrotation
								End Site
								{
									OFFSET 0.000000 0.000000 0.000000
								}
							}
						}
					}
				}
			}
		}
	}
}
MOTION
Frames: 15
Frame Time: 0.050000
0.000000 0.992249 0.000000 1.734117 -7.316666 -6.647458 -0.645045 0.649634 6.075107 -1.765492 0.358107 -6.641606 2.565706 10.612630 28.226644 0.000000 0.000000 0.000000 -1.512539 -0.721276 10.770666 0.860411 -0.157753 -2.441537 -1.977912 -11.650606 19.654486 0.000000 0.000000 0.000000 6.784627 -1.298670 15.396354 -9.391815 2.851899 -23.808671 -0.973335 6.023646 24.302146 11.319210 -6.660679 -17.314234 0.000000 0.000000 0.000000 -27.035415 -16.040316 7.858431 -41.975353 -1.362923 -6.261618 -11.675496 -26.156793 3.730129 0.000000 0.000000 0.000000 36.970392 3.173149 0.343833 41.449041 2.791571 -5.235359 9.605526 22.576116 2.648860 0.000000 0.000000 0.000000
-0.000610 0.990997 0.000128 1.726939 -7.061392 -6.827465 -0.575196 0.645289 6.079830 -1.823527 0.352674 -6.291999 2.658521 10.618003 27.172195 0.000000 0.000000 0.000000 -1.244802 -0.743059 10.511792 0.307279 -0.095318 -1.783348 -3.235800 -13.126364 17.589739 0.000000 0.000000 0.000000 6.523412 -1.263305 15.284248 -10.142531 3.039044 -24.180502 -0.112564 5.712751 24.662599 11.946271 -6.666667 -19.656869 0.000000 0.000000 0.000000 -26.759267 -16.777722 8.393612 -42.691260 -1.510661 -6.377032 -10.990339 -26.973979 3.711156 0.000000 0.000000 0.000000 37.563321 3.403816 0.415587 41.869579 2.306223 -5.440736 8.577744 23.675520 2.608831 0.000000 0.000000 0.000000
-0.001144 0.989662 0.000516 1.755268 -6.194077 -6.898775 -0.132574 0.597235 5.865153 -1.976012 0.334075 -5.081734 1.606384 9.116465 25.088726 0.000000 0.000000 0.000000 -1.445918 -0.783170 11.124580 0.517319 -0.141548 -2.650107 -2.688369 -12.199755 17.871142 0.000000 0.000000 0.000000 6.501331 -1.219846 14.578044 -9.610496 2.912156 -24.369117 -0.459777 5.742345 25.694901 11.988654 -6.615692 -20.075097 0.000000 0.000000 0.000000 -27.458264 -17.166941 8.562022 -41.573455 -1.893172 -6.149467 -11.439947 -26.523463 3.730426 0.000000 0.000000 0.000000 37.572818 3.135630 0.564334 41.969695 2.615611 -5.555273 8.331485 24.857069 2.743727 0.000000 0.000000 0.000000
-0.001637 0.990204 0.000708 1.968926 -6.229769 -7.473036 -0.693287 0.730260 6.855918 -1.676135 0.322627 -5.610109 1.915899 9.450026 24.717374 0.000000 0.000000 0.000000 -1.561558 -0.821718 11.957326 0.840579 -0.168833 -2.786372 -3.182276 -13.058482 18.255667 0.000000 0.000000 0.000000 6.092188 -1.183415 14.840588 -9.307317 2.836540 -24.432172 -0.760087 5.712158 26.190706 12.183269 -6.821036 -20.023246 0.000000 0.000000 0.000000 -27.197718 -17.846220 9.000621 -41.842912 -2.156209 -6.156356 -10.616565 -27.047829 3.610248 0.000000 0.000000 0.000000 38.426915 3.887877 1.105052 41.209328 3.135954 -5.351613 8.285627 25.169131 2.761162 0.000000 0.000000 0.000000
-0.002043 0.990970 0.000728 1.807019 -6.475904 -7.912398 -0.677078 0.774435 7.240761 -1.100253 0.257335 -4.844400 1.804418 9.195642 24.308310 0.000000 0.000000 0.000000 -1.682722 -0.814552 12.188141 1.037569 -0.179887 -2.699785 -2.677983 -12.408933 18.764993 0.000000 0.000000 0.000000 5.643559 -1.111838 14.690811 -8.693894 2.738197 -23.062241 -0.714435 5.492316 25.073519 11.121764 -6.325338 -18.691015 0.000000 0.000000 0.000000 -27.663750 -17.565353 8.927089 -41.956921 -2.975887 -5.824084 -10.090486 -26.593376 3.423314 0.000000 0.000000 0.000000 38.143798 4.288168 1.159284 41.676013 3.416904 -5.134778 7.653121 25.585043 2.660495 0.000000 0.000000 0.000000
-0.002315 0.991469 0.000692 1.752133 -6.824794 -8.260781 -0.583980 0.819627 7.652080 -0.896097 0.235032 -4.644658 1.943701 9.242459 23.816271 0.000000 0.000000 0.000000 -1.781587 -0.806301 12.432929 1.411539 -0.194822 -2.278517 -2.535084 -12.171150 18.474831 0.000000 0.000000 0.000000 5.099653 -1.038306 14.642822 -8.049320 2.563493 -22.797180 -0.533871 5.345169 25.099773 10.969506 -6.222131 -18.898122 0.000000 0.000000 0.000000 -28.495253 -17.846101 9.329837 -41.756180 -3.506147 -5.650892 -9.309798 -26.453604 3.224554 0.000000 0.000000 0.000000 38.289139 5.036748 1.530686 41.660784 4.229467 -4.813411 6.935735 25.443443 2.476655 0.000000 0.000000 0.000000
-0.002392 0.991548 0.000575 1.513741 -7.092302 -8.515739 -0.274825 0.866762 8.194577 -0.867671 0.236011 -4.742093 1.957713 9.346641 24.512680 0.000000 0.000000 0.000000 -1.742437 -0.806360 12.460050 1.496439 -0.196159 -2.104316 -2.561560 -12.181553 18.164299 0.000000 0.000000 0.000000 5.004821 -1.021634 14.656940 -7.584213 2.449522 -22.242345 -0.572437 5.022587 24.771157 10.887816 -6.239163 -18.771220 0.000000 0.000000 0.000000 -28.965612 -17.555895 9.354050 -41.982925 -4.094954 -5.510225 -8.617866 -26.253856 3.050690 0.000000 0.000000 0.000000 38.297350 5.670836 1.744837 41.994518 4.331312 -4.699546 6.001781 25.880522 2.310756 0.000000 0.000000 0.000000
-0.002268 0.991106 0.000391 1.353273 -7.340861 -8.801840 -0.284016 0.936743 8.783244 -0.664917 0.215067 -4.617455 1.889273 9.235442 24.577009 0.000000 0.000000 0.000000 -1.788216 -0.793775 12.458311 1.591709 -0.198668 -1.939859 -2.156013 -11.318190 17.059469 0.000000 0.000000 0.000000 4.825054 -1.009381 14.884093 -7.228725 2.360403 -21.767445 -0.571305 4.916990 24.452180 10.951931 -6.268323 -18.911216 0.000000 0.000000 0.000000 -29.412593 -17.940522 9.723238 -41.734378 -4.470315 -5.341521 -8.172797 -26.263095 2.944205 0.000000 0.000000 0.000000 38.600508 6.296604 2.067295 41.962072 4.744432 -4.484459 5.402131 25.876337 2.167829 0.000000 0.000000 0.000000
-0.002031 0.990253 0.000198 1.202985 -7.247779 -9.061637 -0.153100 0.993685 9.374959 -0.680784 0.221757 -4.784377 1.694103 9.093458 25.053992 0.000000 0.000000 0.000000 -1.819709 -0.796553 12.485696 1.637652 -0.203073 -1.953419 -1.957915 -10.866993 16.574704 0.000000 0.000000 0.000000 4.660096 -1.002192 15.063541 -6.973337 2.303330 -21.421210 -0.471611 4.780826 23.991182 10.853927 -6.200079 -18.819297 0.000000 0.000000 0.000000 -29.823857 -18.264624 9.972176 -41.455080 -4.760858 -5.170789 -7.838737 -26.100805 2.838515 0.000000 0.000000 0.000000 39.001357 6.537773 2.175266 41.322593 4.874269 -4.323748 5.444774 25.624252 2.132900 0.000000 0.000000 0.000000
-0.001842 0.989185 -0.000014 1.160169 -7.445966 -9.386711 -0.252862 1.051449 9.793091 -0.760660 0.232135 -4.886759 2.224793 9.854702 25.684041 0.000000 0.000000 0.000000 -1.779662 -0.812269 12.771448 1.369711 -0.182552 -1.951858 -1.491754 -9.856753 15.572582 0.000000 0.000000 0.000000 4.503835 -0.981613 15.111963 -6.471189 2.151802 -21.262163 -0.701813 4.757018 23.977407 10.678019 -6.173793 -18.453109 0.000000 0.000000 0.000000 -30.226969 -18.186085 10.016468 -40.724552 -4.975454 -5.032966 -7.749105 -26.143886 2.813145 0.000000 0.000000 0.000000 39.376778 7.041594 2.472274 40.879391 4.952523 -4.227644 5.269312 25.668909 2.085156 0.000000 0.000000 0.000000
-0.001712 0.987865 -0.000203 1.049109 -7.446684 -9.385570 -0.124797 1.050966 9.864970 -0.954961 0.246879 -4.820079 2.357537 10.035049 25.702694 0.000000 0.000000 0.000000 -1.745633 -0.823430 12.874582 1.326669 -0.187073 -2.244972 -1.184174 -8.979775 14.373175 0.000000 0.000000 0.000000 4.399652 -0.959924 14.937177 -6.371427 2.145877 -20.563646 -0.605515 4.687546 23.392647 10.463002 -6.000480 -18.421617 0.000000 0.000000 0.000000 -30.429213 -18.452271 10.205764 -40.319978 -5.561930 -4.751698 -7.843549 -25.919628 2.798500 0.000000 0.000000 0.000000 39.308500 7.345530 2.647497 41.011053 4.911155 -4.183213 5.840714 25.474411 2.174652 0.000000 0.000000 0.000000
-0.001734 0.986760 -0.000295 0.794529 -7.761334 -9.559953 0.098775 1.075326 10.171861 -0.768499 0.221541 -4.507102 2.274752 9.688613 24.455829 0.000000 0.000000 0.000000 -1.445884 -0.840923 12.635189 0.994731 -0.157493 -2.078345 -0.889374 -8.758005 15.156675 0.000000 0.000000 0.000000 4.630905 -0.983489 15.011148 -6.103433 2.050065 -20.642155 -0.904801 4.922892 23.343917 10.859509 -6.234111 -18.587415 0.000000 0.000000 0.000000 -30.640726 -18.252893 10.063744 -39.840200 -5.656636 -4.665820 -8.008291 -25.613994 2.793318 0.000000 0.000000 0.000000 39.610693 7.425621 2.742814 40.827346 4.680270 -4.246946 6.663291 24.588040 2.246480 0.000000 0.000000 0.000000
-0.001995 0.986172 -0.000222 0.592112 -7.814312 -9.623604 0.262392 1.098467 10.477660 -0.758481 0.219834 -4.479222 2.404360 9.693645 23.393305 0.000000 0.000000 0.000000 -1.227319 -0.850326 12.317770 0.930693 -0.146672 -1.875196 -0.881972 -8.999629 15.964465 0.000000 0.000000 0.000000 4.570895 -0.996696 15.345153 -5.942441 1.989728 -21.019057 -1.004985 5.049515 23.249167 11.310715 -6.558722 -18.478252 0.000000 0.000000 0.000000 -30.779725 -17.971526 9.837084 -39.820951 -5.579593 -4.672571 -8.077690 -25.312338 2.772083 0.000000 0.000000 0.000000 39.945245 7.273014 2.671469 40.738499 4.037756 -4.447424 7.388635 23.381859 2.253494 0.000000 0.000000 0.000000
-0.002464 0.985526 -0.000100 0.570897 -8.232760 -10.052186 0.210430 1.139348 10.724651 -0.859659 0.213263 -3.936676 3.134248 10.554353 22.987386 0.000000 0.000000 0.000000 -1.253213 -0.851927 12.619542 0.842092 -0.134221 -1.708061 -0.534792 -8.457506 15.903046 0.000000 0.000000 0.000000 4.706202 -1.014710 15.645250 -5.756799 1.925793 -20.895746 -1.420962 5.234829 22.883550 11.564798 -6.554948 -19.307431 0.000000 0.000000 0.000000 -30.721404 -17.470254 9.477499 -39.403098 -5.323639 -4.689086 -8.629830 -24.913907 2.840280 0.000000 0.000000 0.000000 40.024440 7.278375 2.637366 40.806619 3.201184 -4.681005 8.788950 22.693222 2.425482 0.000000 0.000000 0.000000
-0.003114 0.984713 0.000092 0.601755 -8.397934 -10.202664 -0.019692 1.150350 10.644963 -0.559824 0.164162 -3.277787 3.404255 10.795969 22.286227 0.000000 0.000000 0.000000 -1.246799 -0.836830 12.444464 0.958676 -0.133169 -1.386242 -0.755555 -8.895579 16.043650 0.000000 0.000000 0.000000 4.577603 -0.993265 15.621632 -5.747850 1.915206 -21.049399 -1.494154 5.334098 23.008617 11.954393 -6.771142 -19.621580 0.000000 0.000000 0.000000 -30.775708 -17.008253 9.181083 -39.160556 -5.027624 -4.766735 -9.264950 -24.263194 2.892977 0.000000 0.000000 0.000000 40.187382 6.966958 2.387914 40.561352 2.637895 -4.841391 9.762565 21.824414 2.487811 0.000000 0.000000 0.000000
